<svg width="302" height="64" viewBox="0 0 64 64" fill="none" xmlns="http://www.w3.org/2000/svg">
  <g clip-path="url(#clip0_13_4)">
    <path d="M35.9736 5.75869L49.326 18.7667C50.4626 19.8716 51.022 20.9896 51.0044 22.1162C50.9868 23.2428 50.4978 24.2697 49.5419 25.2013C48.5419 26.1763 47.4626 26.6703 46.3084 26.6919C45.1542 26.7093 44.0088 26.1633 42.8722 25.0584L29.2159 11.7557C27.6652 10.2435 26.1674 9.17318 24.7269 8.54488C23.2863 7.91658 21.7709 7.81692 20.185 8.25023C18.5947 8.67921 16.8899 9.78415 15.0617 11.5607C12.5419 14.0176 11.3392 16.3228 11.4626 18.4764C11.5859 20.6299 12.837 22.8658 15.2115 25.1754L28.978 38.5907C30.1278 39.7086 30.6916 40.8265 30.674 41.9358C30.6564 43.0494 30.163 44.0764 29.1894 45.0253C28.2203 45.9699 27.1498 46.4639 25.9868 46.5029C24.8238 46.5419 23.6652 46.0003 22.5198 44.8823L9.1674 31.8743C6.9956 29.7598 5.42731 27.7579 4.46256 25.8686C3.4978 23.9794 3.13657 21.8432 3.38767 19.46C3.61234 17.4191 4.27753 15.4432 5.38767 13.528C6.49339 11.6127 8.0793 9.65416 10.1366 7.64793C12.5859 5.26039 14.9251 3.43182 17.1542 2.15788C19.3789 0.883949 21.533 0.177652 23.6123 0.0303266C25.696 -0.116999 27.7489 0.290313 29.7797 1.25226C31.8106 2.21421 33.8723 3.71347 35.9692 5.75869H35.9736Z" fill="url(#paint0_linear_13_4)"/>
    <path d="M15.0264 58.2456L1.67842 45.2376C0.541857 44.1283 -0.0176143 43.0147 6.80917e-06 41.8881C0.017628 40.7615 0.506615 39.7346 1.46256 38.8029C2.46256 37.828 3.54186 37.334 4.69604 37.3123C5.85023 37.295 6.9956 37.8366 8.13217 38.9459L21.7841 52.2486C23.3392 53.7608 24.8326 54.8311 26.2731 55.4594C27.7137 56.0877 29.2291 56.183 30.8194 55.754C32.4097 55.3251 34.1145 54.2201 35.9427 52.4392C38.4626 49.9823 39.6652 47.6771 39.5419 45.5236C39.4185 43.37 38.1674 41.1341 35.793 38.8203L28.4582 31.7356C27.3084 30.6177 26.7445 29.4997 26.7621 28.3905C26.7797 27.2769 27.2731 26.2499 28.2467 25.301C29.2159 24.3563 30.2864 23.8624 31.4493 23.8234C32.6123 23.7844 33.7709 24.326 34.9163 25.444L41.8326 32.1213C44.0044 34.2358 45.5727 36.2377 46.5375 38.127C47.5022 40.0162 47.8634 42.1524 47.6123 44.5356C47.3877 46.5765 46.7225 48.5524 45.6123 50.4677C44.5066 52.3829 42.9207 54.3415 40.8634 56.3477C38.4141 58.7352 36.0749 60.5638 33.8458 61.8377C31.6167 63.1117 29.4626 63.8223 27.3789 63.9696C25.2952 64.117 23.2423 63.7096 21.2115 62.7477C19.1806 61.7857 17.1189 60.2865 15.022 58.2413L15.0264 58.2456Z" fill="url(#paint1_linear_13_4)"/>
  </g>
  <defs>
    <linearGradient id="paint0_linear_13_4" x1="47.1299" y1="13.3372" x2="5.9782" y2="31.9299" gradientUnits="userSpaceOnUse">
      <stop stop-color="#201C1B"/>
      <stop offset="0.36" stop-color="#77390D"/>
      <stop offset="0.67" stop-color="#EA8101"/>
      <stop offset="1" stop-color="#F4B852"/>
    </linearGradient>
    <linearGradient id="paint1_linear_13_4" x1="5.01376" y1="51.203" x2="52.8347" y2="36.7334" gradientUnits="userSpaceOnUse">
      <stop stop-color="#1F1D1C"/>
      <stop offset="0.37" stop-color="#77390D"/>
      <stop offset="0.67" stop-color="#EA8101"/>
      <stop offset="1" stop-color="#F4FB52"/>
    </linearGradient>
  </defs>
</svg>
